<svg width="1555" height="979" viewBox="0 0 1555 979" fill="none" xmlns="http://www.w3.org/2000/svg">
<rect x="1553.92" y="183.679" width="0.932382" height="1552.92" transform="rotate(90 1553.92 183.679)" fill="white" fill-opacity="0.25"/>
<rect x="1555" y="275.984" width="0.932382" height="1554" transform="rotate(90 1555 275.984)" fill="white" fill-opacity="0.25"/>
<rect x="1555" y="368.291" width="0.932382" height="1554" transform="rotate(90 1555 368.291)" fill="white" fill-opacity="0.25"/>
<rect x="1555" y="460.596" width="0.932382" height="1554" transform="rotate(90 1555 460.596)" fill="white" fill-opacity="0.25"/>
<rect x="1555" y="552.903" width="0.932382" height="1554" transform="rotate(90 1555 552.903)" fill="white" fill-opacity="0.25"/>
<rect x="1555" y="645.208" width="0.932382" height="1554" transform="rotate(90 1555 645.208)" fill="white" fill-opacity="0.25"/>
<rect x="1553.92" y="737.515" width="0.932382" height="1552.92" transform="rotate(90 1553.92 737.515)" fill="white" fill-opacity="0.25"/>
<rect x="1553.92" y="829.82" width="0.932382" height="1552.92" transform="rotate(90 1553.92 829.82)" fill="white" fill-opacity="0.25"/>
<rect x="1553.92" y="91.374" width="0.932382" height="1552.92" transform="rotate(90 1553.92 91.374)" fill="white" fill-opacity="0.25"/>
<rect x="1553.92" y="922.125" width="0.932382" height="1552.92" transform="rotate(90 1553.92 922.125)" fill="white" fill-opacity="0.25"/>
<rect x="189.858" y="24.2405" width="1.07917" height="954.759" fill="white" fill-opacity="0.25"/>
<rect x="83.021" y="24.2404" width="1.07917" height="954.759" fill="white" fill-opacity="0.25"/>
<rect x="296.696" y="24.2405" width="1.07917" height="954.759" fill="white" fill-opacity="0.25"/>
<rect x="403.533" y="24.2405" width="1.07917" height="954.759" fill="white" fill-opacity="0.25"/>
<rect x="510.37" y="24.2405" width="1.07917" height="954.759" fill="white" fill-opacity="0.25"/>
<rect x="617.207" y="24.2405" width="1.07917" height="954.759" fill="white" fill-opacity="0.25"/>
<rect x="724.044" y="24.2405" width="1.07917" height="954.759" fill="white" fill-opacity="0.25"/>
<rect x="830.881" y="24.2405" width="1.07917" height="954.759" fill="white" fill-opacity="0.25"/>
<rect x="937.719" y="24.2405" width="1.07917" height="954.759" fill="white" fill-opacity="0.25"/>
<rect x="1044.56" y="24.2404" width="1.07917" height="954.759" fill="white" fill-opacity="0.25"/>
<rect x="1151.39" y="24.2405" width="1.07917" height="954.759" fill="white" fill-opacity="0.25"/>
<rect x="1258.23" y="24.2405" width="1.07917" height="954.759" fill="white" fill-opacity="0.25"/>
<rect x="1471.9" y="24.2405" width="1.07917" height="954.759" fill="white" fill-opacity="0.25"/>
<rect x="1365.07" y="24.2405" width="1.07917" height="954.759" fill="white" fill-opacity="0.25"/>
<rect x="0.5" y="24.5" width="1554" height="954" rx="39.5" stroke="white" stroke-opacity="0.25"/>
</svg>
